<svg xmlns="http://www.w3.org/2000/svg" width="130" height="40" viewBox="0 0 130 40">
    <g fill="none" fill-rule="evenodd">
        <circle cx="20" cy="20" r="20" fill="#007BFF"/>
        <path fill="#FFF" d="M25.854 8h-5.4c-.646 0-1.315.428-1.595 1.018l-5.725 12.114c-.188.394-.176.813.026 1.145.205.335.567.53.997.54l4.24.054-3.069 7.81c-.075.196-.235.602.048 1.023a.675.675 0 0 0 .553.296h.05c.415 0 .664-.32.785-.472l9.914-12.679c.425-.54.249-1.023.186-1.164-.066-.136-.334-.578-1.008-.578h-3.155l4.127-7.408c.217-.39.23-.812.03-1.157-.196-.344-.562-.542-1.004-.542z"/>
        <path fill="#007BFF" d="M67.87 10c4.145 0 7.585 2.138 9.051 5.907h-3.073c-1.072-2.278-3.215-3.6-5.978-3.6-4.146 0-7.248 2.981-7.248 7.707 0 4.698 3.102 7.68 7.248 7.68 3.863 0 6.514-2.476 6.908-6.358H66.94v-2.081h10.575v1.969C77.062 26.09 73.199 30 67.87 30 62.343 30 58 25.893 58 20.014 58 14.135 62.343 10 67.87 10zm24.172 5.992c0-2.223-1.24-3.657-4.173-3.657H84.09v7.426h3.779c2.904 0 4.173-1.575 4.173-3.77zm-10.518-5.767h6.345c4.625 0 6.824 2.56 6.824 5.767 0 2.503-1.382 4.894-4.681 5.625l4.935 8.214h-3.074l-4.68-8.017H84.09v8.017h-2.566V10.225zm17.772 19.606V10.225h2.566v19.606h-2.566zm10.13-10.295h3.778c2.933 0 4.174-1.378 4.174-3.573 0-2.278-1.241-3.628-4.174-3.628h-3.779v7.2zM120 15.963c0 2.982-1.918 5.683-6.796 5.683h-3.779v8.185h-2.566V10.225h6.345c4.625 0 6.796 2.532 6.796 5.738z"/>
    </g>
</svg>
